<?xml version="1.0" encoding="iso-8859-1"?>
<!-- Generator: Adobe Illustrator 19.0.0, SVG Export Plug-In . SVG Version: 6.00 Build 0)  -->
<svg version="1.1" id="Layer_1" xmlns="http://www.w3.org/2000/svg" xmlns:xlink="http://www.w3.org/1999/xlink" x="0px" y="0px"
	 viewBox="0 0 512 512" style="enable-background:new 0 0 512 512;" xml:space="preserve">
<circle style="fill:#366695;" cx="256" cy="256" r="256"/>
<path style="fill:#273B7A;" d="M511.257,236.361L378.968,104.072L132.406,407.331l103.927,103.924
	C242.824,511.748,249.382,512,256,512c141.384,0,256-114.616,256-256C512,249.392,511.748,242.843,511.257,236.361z"/>
<g>
	<path style="fill:#FFFFFF;" d="M286.168,168.943H384V115.79c0-8.966-7.268-16.234-16.234-16.234h-81.598V168.943z"/>
	<path style="fill:#FFFFFF;" d="M128,172.391v223.82c0,8.966,7.268,16.234,16.234,16.234h223.534
		c8.966,0,16.234-7.268,16.234-16.234v-223.82H128z"/>
	<path style="fill:#FFFFFF;" d="M282.721,168.943V99.556H144.234c-8.966,0-16.234,7.268-16.234,16.234v53.153H282.721z"/>
</g>
<g>
	<path style="fill:#D3D3D3;" d="M286.168,168.943H384V115.79c0-8.966-7.268-16.234-16.234-16.234h-81.598V168.943z"/>
	<path style="fill:#D3D3D3;" d="M256.288,172.391v240.054h111.48c8.966,0,16.234-7.268,16.234-16.234v-223.82H256.288z"/>
	<rect x="256.293" y="99.556" style="fill:#D3D3D3;" width="26.433" height="69.387"/>
</g>
<circle style="fill:#B3F1F4;" cx="256" cy="284.444" r="85.333"/>
<path style="fill:#38C6D9;" d="M341.333,284.444c0-47.032-38.05-85.17-85.045-85.326v170.653
	C303.283,369.614,341.333,331.476,341.333,284.444z"/>
<path style="fill:#366695;" d="M256,377.535c-51.329,0-93.091-41.762-93.091-93.091s41.762-93.091,93.091-93.091
	s93.091,41.762,93.091,93.091S307.329,377.535,256,377.535z M256,206.869c-42.775,0-77.576,34.8-77.576,77.576
	s34.8,77.576,77.576,77.576s77.576-34.8,77.576-77.576S298.775,206.869,256,206.869z"/>
<path style="fill:#273B7A;" d="M349.091,284.444c0-51.233-41.606-92.927-92.803-93.084v15.515
	c42.644,0.157,77.288,34.89,77.288,77.569s-34.644,77.412-77.288,77.569v15.515C307.484,377.372,349.091,335.677,349.091,284.444z"
	/>
<g>
	<circle style="fill:#38C6D9;" cx="156.444" cy="128" r="14.222"/>
	<circle style="fill:#38C6D9;" cx="213.333" cy="128" r="14.222"/>
</g>
<g>
</g>
<g>
</g>
<g>
</g>
<g>
</g>
<g>
</g>
<g>
</g>
<g>
</g>
<g>
</g>
<g>
</g>
<g>
</g>
<g>
</g>
<g>
</g>
<g>
</g>
<g>
</g>
<g>
</g>
</svg>
